<?xml version="1.0" standalone="no"?>
<!DOCTYPE svg PUBLIC "-//W3C//DTD SVG 20010904//EN"
 "http://www.w3.org/TR/2001/REC-SVG-20010904/DTD/svg10.dtd">
<svg version="1.0" xmlns="http://www.w3.org/2000/svg"
 width="920.000000pt" height="920.000000pt" viewBox="0 0 920.000000 920.000000"
 preserveAspectRatio="xMidYMid meet">

<g transform="translate(0.000000,920.000000) scale(0.100000,-0.100000)"
fill="#000000" stroke="none">
<path d="M960 4599 c0 -929 1 -980 18 -975 9 3 77 12 149 22 l133 17 2 531 3
531 74 -210 c76 -219 199 -572 246 -710 15 -44 31 -84 35 -88 4 -5 80 -1 169
9 l161 18 0 918 0 918 -150 0 -150 0 -2 -552 -3 -553 -69 190 c-37 105 -83
231 -101 280 -18 50 -77 213 -131 363 l-98 272 -143 0 -143 0 0 -981z"/>
<path d="M2250 4676 l0 -904 38 4 c75 7 270 24 372 31 58 4 107 8 110 8 11 3
316 19 323 17 4 -1 7 68 7 153 l0 154 -27 -4 c-16 -3 -102 -9 -193 -15 -91 -6
-201 -13 -245 -16 l-80 -7 2 229 3 229 205 3 205 2 0 150 0 150 -205 0 -204 0
-3 206 c-2 113 -1 208 1 210 2 2 125 4 273 4 l268 0 0 150 0 150 -425 0 -425
0 0 -904z"/>
<path d="M3300 5430 l0 -150 160 0 160 0 0 -711 0 -712 73 6 c39 4 109 7 155
7 l82 0 0 705 0 705 160 0 160 0 0 150 0 150 -475 0 -475 0 0 -150z"/>
<path d="M4450 4730 l0 -850 150 0 150 0 0 350 0 350 210 0 210 0 0 150 0 150
-210 0 -210 0 0 200 0 201 275 -3 275 -3 0 153 0 152 -425 0 -425 0 0 -850z"/>
<path d="M5500 4726 c0 -470 3 -857 8 -859 4 -3 97 -8 207 -11 110 -4 220 -9
245 -11 25 -2 97 -7 160 -10 63 -3 136 -8 163 -11 l47 -6 0 150 0 149 -47 7
c-27 3 -115 8 -198 12 -82 3 -159 8 -170 9 -11 2 -39 4 -62 4 l-43 1 0 715 0
715 -155 0 -155 0 0 -854z"/>
<path d="M6590 4691 l0 -888 88 -7 c48 -3 116 -9 152 -12 l65 -6 -3 901 -2
901 -150 0 -150 0 0 -889z"/>
<path d="M7163 5568 c84 -209 348 -897 349 -908 0 -8 -85 -213 -190 -455 -130
-300 -187 -442 -179 -446 7 -4 71 -12 142 -18 72 -7 137 -14 145 -16 12 -4 41
55 124 248 59 138 112 256 116 260 4 5 28 -44 54 -110 25 -65 74 -192 109
-283 l64 -165 64 -12 c79 -14 283 -43 285 -40 0 1 -45 119 -101 262 -55 143
-145 374 -199 513 l-99 253 106 247 c59 136 149 345 201 465 l94 217 -167 0
-167 0 -68 -157 c-37 -87 -87 -202 -109 -255 -23 -54 -44 -98 -47 -98 -3 0
-49 115 -104 255 l-99 255 -164 0 c-128 0 -164 -3 -160 -12z"/>
</g>
</svg>
